<?xml version="1.0" encoding="UTF-8"?>
<svg version="1.1" xmlns="http://www.w3.org/2000/svg" width="512" height="512">
<path d="M0 0 C20.58038802 17.62717798 33.66771919 41.07620815 36.83984375 68.125 C36.92754956 69.62373745 36.99054531 71.12414953 37.02734375 72.625 C37.06601562 73.45386719 37.1046875 74.28273438 37.14453125 75.13671875 C37.87700383 103.01136971 27.18294955 129.03399691 8.375 149.375 C-4.46475512 161.68065549 -19.09461483 170.18241201 -35.97265625 175.625 C-37.53113281 176.13933594 -37.53113281 176.13933594 -39.12109375 176.6640625 C-56.7768157 181.42265759 -77.68336792 180.33196206 -94.97265625 174.625 C-96.101875 174.26277344 -97.23109375 173.90054688 -98.39453125 173.52734375 C-122.0993303 165.16261203 -140.75005099 148.4567377 -152.97265625 126.625 C-153.51792969 125.69300781 -154.06320313 124.76101563 -154.625 123.80078125 C-166.32410836 102.45660646 -168.25136523 74.90854578 -161.97265625 51.625 C-157.29128356 35.82146602 -149.73945175 21.27575215 -137.97265625 9.625 C-137.16828125 8.779375 -136.36390625 7.93375 -135.53515625 7.0625 C-134.68953125 6.258125 -133.84390625 5.45375 -132.97265625 4.625 C-132.32554687 3.97144531 -131.6784375 3.31789063 -131.01171875 2.64453125 C-96.01312924 -31.13317723 -36.7099427 -30.32510645 0 0 Z " fill="#D9A07D" transform="translate(319.97265625,332.375)"/>
<path d="M0 0 C0.78761719 0.62390625 1.57523438 1.2478125 2.38671875 1.890625 C12.0740313 9.938026 18.70523573 19.93515553 24.5625 30.9375 C24.99232178 31.74227783 25.42214355 32.54705566 25.86499023 33.3762207 C28.02856805 37.58774516 29.56189886 41.21163145 30 46 C29.51233154 46.26103516 29.02466309 46.52207031 28.5222168 46.79101562 C14.68625501 54.23450561 2.47866815 62.17505835 -9 73 C-9.67675781 73.61230469 -10.35351562 74.22460938 -11.05078125 74.85546875 C-17.38387353 80.807814 -22.19688771 87.8045173 -27 95 C-27.63035156 95.93457031 -28.26070312 96.86914062 -28.91015625 97.83203125 C-41.33954779 117.62279363 -45.82192747 140.00582987 -46.5625 163 C-46.62727539 164.87751953 -46.62727539 164.87751953 -46.69335938 166.79296875 C-46.79878017 169.86188523 -46.90090342 172.93087389 -47 176 C-72.23303606 180.76907424 -98.47780899 176.21530035 -120.1875 162.1875 C-143.44724946 145.90567538 -159.37179386 124.04870037 -165.08203125 95.92578125 C-169.66122695 69.83254686 -164.61961329 43.39508418 -150.25 21.1875 C-132.98759926 -3.26756771 -109.33732266 -18.19497571 -79.7109375 -23.40234375 C-50.70570344 -27.36747874 -22.32929043 -18.43882841 0 0 Z " fill="#767EBD" transform="translate(176,248)"/>
<path d="M0 0 C18.74478196 15.74932257 31.14663419 34.37466144 36.875 58.25 C37.24431641 59.73693359 37.24431641 59.73693359 37.62109375 61.25390625 C42.98660161 87.26736852 36.57009901 114.47556448 22.4296875 136.60546875 C18.2666268 142.76476463 13.16158002 148.05364722 7.875 153.25 C7.11316406 154.01054687 6.35132813 154.77109375 5.56640625 155.5546875 C-13.46487316 173.50345377 -40.312392 181.93461192 -66.125 181.25 C-71.17428568 180.88404752 -76.1435323 180.15098295 -81.125 179.25 C-81.11452637 178.63181396 -81.10405273 178.01362793 -81.09326172 177.37670898 C-80.51543619 137.97120214 -90.85420218 104.63814516 -118.375 75.5625 C-128.99670585 65.39358445 -143.07583556 54.93305481 -157.125 50.25 C-156.67957377 43.86316267 -155.09549917 39.38097876 -152 33.8125 C-151.59330078 33.06605225 -151.18660156 32.31960449 -150.76757812 31.55053711 C-147.68876115 26.0121707 -144.32523229 21.00721962 -140.125 16.25 C-139.44953125 15.44433594 -138.7740625 14.63867188 -138.078125 13.80859375 C-103.51556649 -26.33054779 -41.82996009 -32.05411886 0 0 Z " fill="#CA94C2" transform="translate(463.125,244.75)"/>
<path d="M0 0 C22.53229649 17.11709444 34.53263505 39.76967681 40.24365234 67.07666016 C43.1176921 89.35731126 39.17325361 111.92457925 27.65380859 131.25634766 C26.57047526 130.44384766 25.48714193 129.63134766 24.40380859 128.81884766 C23.66775391 128.27099609 22.93169922 127.72314453 22.17333984 127.15869141 C20.42528412 125.83884158 18.69451036 124.49591125 16.97802734 123.13525391 C-9.1790922 102.71217139 -42.45284254 94.0412495 -75.37744141 97.75244141 C-99.8936551 101.05021954 -122.22734996 110.58085902 -141.16259766 126.52978516 C-143.45100821 128.33922606 -145.81721647 129.80740947 -148.34619141 131.25634766 C-161.65389237 104.56618336 -165.13930629 77.23596672 -155.88525391 48.52978516 C-151.70475703 36.45095823 -145.41992704 26.12087427 -137.34619141 16.25634766 C-136.59595703 15.27794922 -136.59595703 15.27794922 -135.83056641 14.27978516 C-103.58699342 -26.30264292 -40.124181 -28.84108772 0 0 Z " fill="#75C275" transform="translate(461.34619140625,101.74365234375)"/>
<path d="M0 0 C1.61841797 0.78890625 1.61841797 0.78890625 3.26953125 1.59375 C26.00521566 13.2395022 44.17138918 33.87083375 52.23779297 58.21826172 C60.69862005 85.19565748 58.95120889 113.75866481 46 139 C45.01 139.66 44.02 140.32 43 141 C42.52433594 140.53851563 42.04867187 140.07703125 41.55859375 139.6015625 C17.02691553 116.74147193 -15.55331297 105.82168868 -48.8125 106.72265625 C-78.11401114 108.03620986 -104.6974505 119.20079628 -127 138 C-128.32467025 139.01144773 -129.65393225 140.01720837 -131 141 C-134.69395209 135.58906296 -137.22107117 130.36369749 -139.1875 124.125 C-139.43435547 123.38636719 -139.68121094 122.64773437 -139.93554688 121.88671875 C-146.37699844 102.06422512 -146.23040168 79.8722994 -140 60 C-139.649375 58.85917969 -139.29875 57.71835938 -138.9375 56.54296875 C-133.7430004 41.62681886 -124.97533553 30.09935062 -114 19 C-113.39671875 18.32453125 -112.7934375 17.6490625 -112.171875 16.953125 C-85.43643979 -12.48285922 -34.05290343 -16.7244819 0 0 Z " fill="#EEE391" transform="translate(154,92)"/>
<path d="M0 0 C12.88396513 11.03516349 24.03433057 24.55282828 30.02734375 40.625 C30.13671875 42.79296875 30.13671875 42.79296875 29.02734375 44.625 C26.73975532 46.04653014 24.568711 47.22090102 22.15234375 48.375 C11.12943628 53.95381813 1.9967099 61.15230885 -6.97265625 69.625 C-7.72289062 70.31078125 -8.473125 70.9965625 -9.24609375 71.703125 C-30.54225797 91.87843847 -42.9825221 121.60640138 -44.97265625 150.625 C-45.08525217 155.33440163 -45.0679373 160.03961565 -45.03515625 164.75 C-45.03064453 165.99265625 -45.02613281 167.2353125 -45.02148438 168.515625 C-45.00980549 171.55213502 -44.99342765 174.58854088 -44.97265625 177.625 C-48.84278067 178.53217302 -52.43915395 178.75379559 -56.41015625 178.7578125 C-58.24707031 178.75974609 -58.24707031 178.75974609 -60.12109375 178.76171875 C-61.39210938 178.75785156 -62.663125 178.75398437 -63.97265625 178.75 C-65.24367188 178.75386719 -66.5146875 178.75773438 -67.82421875 178.76171875 C-69.04882812 178.76042969 -70.2734375 178.75914062 -71.53515625 178.7578125 C-73.20771484 178.75612061 -73.20771484 178.75612061 -74.9140625 178.75439453 C-77.71732323 178.63580192 -80.24639865 178.26404595 -82.97265625 177.625 C-82.98723877 176.67882812 -83.00182129 175.73265625 -83.0168457 174.7578125 C-83.07590368 171.1640496 -83.15310095 167.57084528 -83.23510742 163.97753906 C-83.26786189 162.43791942 -83.29603799 160.89819389 -83.3190918 159.35839844 C-83.53013571 145.61809272 -84.79520884 132.10216216 -89.66015625 119.125 C-89.91506836 118.42979248 -90.16998047 117.73458496 -90.43261719 117.01831055 C-97.49284102 98.33655341 -107.99375113 82.80620476 -121.97265625 68.625 C-123.13861328 67.43970703 -123.13861328 67.43970703 -124.328125 66.23046875 C-134.29974629 56.69312242 -146.80934305 49.96435391 -158.97265625 43.625 C-153.75304131 28.72162576 -145.94376211 17.68740494 -134.97265625 6.625 C-134.32167969 5.92503906 -133.67070312 5.22507812 -133 4.50390625 C-99.07313306 -31.50830003 -36.72863482 -30.34054752 0 0 Z " fill="#C97682" transform="translate(319.97265625,23.375)"/>
</svg>
