<?xml version="1.0" encoding="UTF-8"?>
<svg version="1.1" xmlns="http://www.w3.org/2000/svg" width="2048" height="2048">
<path d="M0 0 C7.01051427 5.73521184 13.30988954 12.17237836 19.69930172 18.57625389 C20.99996199 19.87617406 22.3008417 21.17587469 23.6019204 22.47537607 C27.18345725 26.05384499 30.76186646 29.63542735 34.33978236 33.21751617 C38.23014592 37.11131434 42.12341172 41.00220885 46.01631314 44.89346945 C52.84085327 51.71593533 59.6635315 58.54025875 66.48500061 65.36579514 C76.62831098 75.51513662 86.77448222 85.66161459 96.92124843 95.80750096 C113.98907918 112.87392449 131.05449058 129.9427655 148.11861992 147.01288986 C165.01729474 163.91748738 181.91700429 180.82104937 198.81810188 197.72322464 C199.34300862 198.24816579 199.86791536 198.77310694 200.40872837 199.3139554 C205.20295225 204.10849249 209.99718889 208.90301682 214.79144083 213.69752584 C226.70934743 225.61607183 238.62709405 237.53477778 250.54473209 249.4535923 C251.08743168 249.99634521 251.63013127 250.53909811 252.1892763 251.09829807 C278.5876685 277.49931172 304.9842174 303.90216814 331.38061523 330.30517578 C340.54061239 339.4674646 349.70061769 348.62974526 358.86065674 357.79199219 C359.71281798 358.64435885 359.71281798 358.64435885 360.58219459 359.51394504 C386.99274799 385.93084267 413.4046108 412.34643097 439.81681142 438.76168166 C441.53153924 440.47660754 443.24626649 442.19153399 444.96099363 443.90646055 C456.32459335 455.27138006 467.68821564 466.63627699 479.05185304 478.00115882 C501.66261626 500.61439853 524.27324687 523.22777083 546.88378638 545.84123421 C547.96055605 546.91814312 549.0373258 547.99505193 550.11409565 549.07196065 C607.41530404 606.38056085 664.71427993 663.69139302 765 764 C768.63370102 762.29207769 770.97582882 760.27188251 773.82709122 757.41621113 C774.30036608 756.94494436 774.77364094 756.47367759 775.26125747 755.98813 C776.85199647 754.40169526 778.43547225 752.8082031 780.019104 751.2146759 C781.16724539 750.06669053 782.31582784 748.91914613 783.46481395 747.77200621 C786.62587783 744.61347918 789.78066018 741.44874179 792.93448424 738.28298795 C796.33519875 734.87159856 799.74168783 731.46598437 803.14750671 728.05969238 C809.05089849 722.15393606 814.95066667 716.24457967 820.84806061 710.33283424 C829.38294979 701.77727438 837.92382449 693.22771012 846.46627387 684.67969962 C860.33588109 670.80083071 874.20138222 656.91786749 888.06396484 643.03198242 C888.89398588 642.20056808 889.72400691 641.36915373 890.57918009 640.51254501 C891.82574117 639.26389064 891.82574117 639.26389064 893.0974853 637.99001092 C904.86881004 626.19893573 916.64109197 614.40881736 928.41455078 602.61987305 C929.24234843 601.79098455 930.07014607 600.96209605 930.9230285 600.10808972 C944.73024087 586.28284798 958.53948848 572.45964027 972.34977889 558.63747329 C980.86804221 550.11162226 989.38422209 541.58369962 997.89771023 533.05308028 C1003.73403236 527.20517954 1009.57205634 521.35898161 1015.41141352 515.5141115 C1018.77973349 512.1424638 1022.14720171 508.76997628 1025.51244926 505.39526176 C1028.59582503 502.30322778 1031.68152249 499.2135303 1034.76904175 496.12563392 C1035.8829988 495.01071457 1036.99610584 493.89494511 1038.10825351 492.77822087 C1047.45344708 483.39606345 1047.45344708 483.39606345 1051.85219955 479.64737988 C1058.2019445 474.20318874 1063.9899246 468.14027878 1069.8918457 462.22167969 C1071.30351502 460.80973012 1072.71540633 459.39800249 1074.12749958 457.9864769 C1077.99556363 454.11870764 1081.86051085 450.247837 1085.72495508 446.37645149 C1089.8976818 442.19733955 1094.07332203 438.02114053 1098.24862671 433.84460449 C1105.48009591 426.61025088 1112.70978696 419.37412422 1119.93832397 412.13684082 C1130.39770739 401.66483408 1140.8603882 391.19612646 1151.32394326 380.72828817 C1156.20286418 375.84736128 1161.08162429 370.96627365 1165.96034241 366.08514404 C1166.44868377 365.59656167 1166.93702513 365.1079793 1167.44016471 364.6045914 C1179.05532352 352.98362533 1190.66890695 341.36108527 1202.28222656 329.73828125 C1202.7901536 329.22994057 1203.29808064 328.72159988 1203.82139941 328.19785494 C1211.54766061 320.46529758 1219.27383961 312.73265808 1227 305 C1235.23921118 296.75385966 1243.4784526 288.50774952 1251.71777344 280.26171875 C1252.47924905 279.49962126 1252.47924905 279.49962126 1253.256108 278.72212785 C1264.8498524 267.11893212 1276.44404832 255.51618806 1288.03965759 243.91485596 C1288.77099433 243.18315773 1288.77099433 243.18315773 1289.51710554 242.43667772 C1294.38503276 237.56636494 1299.25303881 232.69613096 1304.12116249 227.82601453 C1315.03952621 216.903145 1325.95612495 205.9785178 1336.87013698 195.05130005 C1344.01783728 187.89517473 1351.16730362 180.74081707 1358.31816316 173.58784866 C1362.44394189 169.46072488 1366.56888419 165.33277382 1370.69163132 161.20262146 C1374.46691211 157.42058519 1378.24449991 153.64086916 1382.02391946 149.86296892 C1383.38943149 148.49718581 1384.75409528 147.13055399 1386.11781466 145.76298094 C1398.12842842 133.72000914 1398.12842842 133.72000914 1404.35419559 128.41912735 C1406.92881717 126.19910905 1409.30451932 123.81815758 1411.70751953 121.41273499 C1412.4834387 120.63809746 1412.4834387 120.63809746 1413.275033 119.84781069 C1414.98000152 118.14446822 1416.68140913 116.43761585 1418.3828125 114.73071289 C1419.61528893 113.49795394 1420.84798649 112.26541603 1422.08088684 111.03308105 C1425.40692937 107.70732397 1428.7298922 104.37850543 1432.05228806 101.04910588 C1435.53248824 97.56262991 1439.01554411 94.07900916 1442.49829102 90.59507751 C1449.08386272 84.00640492 1455.6668824 77.41518865 1462.24897671 70.82304233 C1469.74643042 63.31438884 1477.24674346 55.80859427 1484.74729156 48.30303204 C1500.16803251 32.87185484 1515.58520018 17.43711187 1531 2 C1533.82135791 3.28551176 1535.8764053 4.62656283 1538.06512165 6.81623268 C1538.64701262 7.39352485 1539.22890359 7.97081702 1539.82842761 8.5656029 C1540.45789883 9.20021767 1541.08737004 9.83483245 1541.73591614 10.48867798 C1542.75043878 11.499579 1542.75043878 11.499579 1543.78545684 12.53090227 C1546.05552375 14.79532378 1548.31835864 17.06683696 1550.58129883 19.33837891 C1552.20555619 20.96156355 1553.83024635 22.58431519 1555.45533752 24.20666504 C1559.87324874 28.6197214 1564.2848715 33.03901583 1568.69528413 37.45956469 C1573.31185889 42.08491658 1577.93369845 46.70500208 1582.55485535 51.32577515 C1590.32019069 59.09169305 1598.08131288 66.86180556 1605.84008789 74.63427734 C1613.81271118 82.62096755 1621.78880702 90.60416812 1629.76879883 98.58349609 C1630.50504765 99.31968498 1630.50504765 99.31968498 1631.25617019 100.07074638 C1631.74617315 100.56070899 1632.23617612 101.05067159 1632.74102765 101.55548155 C1642.29461943 111.10834689 1651.84434309 120.66507085 1661.39298415 130.22288465 C1664.14134109 132.97336987 1666.89040525 135.72314654 1669.63962746 138.47276688 C1673.96837285 142.8025199 1678.29454767 147.13482564 1682.61878014 151.46908569 C1684.20335148 153.05656816 1685.78875838 154.64321713 1687.37507629 156.22895432 C1689.54675308 158.40013708 1691.71531242 160.57438803 1693.88313293 162.74942017 C1694.50591198 163.37065061 1695.12869103 163.99188106 1695.77034217 164.63193667 C1699.48970795 168.37163924 1703.00289881 172.24080459 1706.45297557 176.22988629 C1708.17768191 178.2033046 1709.97163966 180.07728028 1711.84092712 181.91407776 C1712.51526794 182.57967712 1713.18960876 183.24527649 1713.88438416 183.93104553 C1714.59792557 184.62999435 1715.31146698 185.32894318 1716.04663086 186.04907227 C1717.64374938 187.62321786 1719.24082914 189.19740277 1720.83787537 190.7716217 C1721.67367064 191.59356585 1722.5094659 192.41550999 1723.3705883 193.26236153 C1727.82298499 197.64574647 1732.2586839 202.04599395 1736.69726562 206.44335938 C1742.33279608 212.02484382 1747.97323485 217.60108043 1753.63208008 223.15893555 C1758.21995547 227.66580282 1762.79063807 232.18947727 1767.35019112 236.72498894 C1769.08832613 238.44767787 1770.83274299 240.16405247 1772.58347893 241.87393379 C1775.0250873 244.26014968 1777.4441522 246.6672014 1779.85913086 249.08032227 C1780.58684189 249.78129532 1781.31455292 250.48226837 1782.0643158 251.20448303 C1782.71891785 251.86726257 1783.3735199 252.53004211 1784.04795837 253.21290588 C1784.62143981 253.77863595 1785.19492125 254.34436602 1785.78578091 254.92723942 C1787.63068619 258.07662734 1787.35033708 260.40414508 1787 264 C1785.12406874 266.74647141 1785.12406874 266.74647141 1782.43083954 269.43328857 C1781.93685445 269.93565017 1781.44286936 270.43801177 1780.93391502 270.95559645 C1779.26964445 272.63944259 1777.58152017 274.29710718 1775.89245605 275.95605469 C1774.68396996 277.16830869 1773.47702178 278.38209746 1772.27148676 279.59728622 C1768.95047945 282.93591591 1765.60798263 286.2522827 1762.2616334 289.565485 C1758.65781026 293.14117723 1755.07418757 296.73701338 1751.48806763 300.33044434 C1744.45709236 307.36943293 1737.40773204 314.38973052 1730.35228902 321.40418434 C1722.13698265 329.57338234 1713.94104106 337.76189309 1705.7461465 345.95155859 C1691.12098945 360.5662667 1676.47989764 375.16490413 1661.82910156 389.75390625 C1647.61458213 403.90852695 1633.40877581 418.07180559 1619.21386719 432.24609375 C1618.34021371 433.11847356 1617.46656024 433.99085338 1616.56643242 434.88966894 C1613.05468551 438.39635021 1609.5429776 441.90307052 1606.03132674 445.40984797 C1590.05712245 461.36156299 1574.07623923 477.30658642 1558.09375 493.25 C1557.28249121 494.05931158 1556.47123243 494.86862316 1555.63539004 495.70245934 C1545.48974222 505.82360288 1535.34100223 515.94162788 1525.18688583 526.05427551 C1522.35751874 528.87223851 1519.52925847 531.69130481 1516.70201492 534.51139832 C1513.4445394 537.76052945 1510.18475693 541.00732755 1506.92312437 544.25228548 C1505.74584159 545.4243014 1504.56936155 546.59712435 1503.39378399 547.77085066 C1493.51444624 557.63288329 1493.51444624 557.63288329 1489.11052704 561.3861084 C1482.77271278 566.81784188 1476.99792834 572.87190261 1471.1081543 578.77832031 C1469.69648498 580.19026988 1468.28459367 581.60199751 1466.87250042 583.0135231 C1463.00443637 586.88129236 1459.13948915 590.752163 1455.27504492 594.62354851 C1451.1023182 598.80266045 1446.92667797 602.97885947 1442.75137329 607.15539551 C1435.51990409 614.38974912 1428.29021304 621.62587578 1421.06167603 628.86315918 C1410.60229261 639.33516592 1400.1396118 649.80387354 1389.67605674 660.27171183 C1384.79713582 665.15263872 1379.91837571 670.03372635 1375.03965759 674.91485596 C1374.55131623 675.40343833 1374.06297487 675.8920207 1373.55983529 676.3954086 C1361.94467648 688.01637467 1350.33109305 699.63891473 1338.71777344 711.26171875 C1338.2098464 711.77005943 1337.70191936 712.27840012 1337.17860059 712.80214506 C1329.45233939 720.53470242 1321.72616039 728.26734192 1314 736 C1305.76078882 744.24614034 1297.5215474 752.49225048 1289.28222656 760.73828125 C1288.52075095 761.50037874 1288.52075095 761.50037874 1287.743892 762.27787215 C1276.1501476 773.88106788 1264.55595168 785.48381194 1252.96034241 797.08514404 C1252.47278458 797.57294286 1251.98522676 798.06074168 1251.48289446 798.56332228 C1246.61496724 803.43363506 1241.74696119 808.30386904 1236.87883751 813.17398547 C1225.96047379 824.096855 1215.04387505 835.0214822 1204.12986302 845.94869995 C1196.98216272 853.10482527 1189.83269638 860.25918293 1182.68183684 867.41215134 C1178.55605811 871.53927512 1174.43111581 875.66722618 1170.30836868 879.79737854 C1166.53308789 883.57941481 1162.75550009 887.35913084 1158.97608054 891.13703108 C1157.61056851 892.50281419 1156.24590472 893.86944601 1154.88218534 895.23701906 C1142.83196638 907.31970277 1142.83196638 907.31970277 1136.60883236 912.6178447 C1134.2641763 914.63214954 1132.0836498 916.7935682 1129.89990234 918.97984314 C1128.50769218 920.3699913 1128.50769218 920.3699913 1127.08735657 921.78822327 C1126.08683637 922.79228088 1125.08636495 923.79638709 1124.0859375 924.80053711 C1123.01109459 925.87566265 1121.93603033 926.95056694 1120.86076355 928.02526855 C1117.96445903 930.92128806 1115.0712319 933.82036393 1112.17857742 936.72002864 C1109.14681636 939.75807265 1106.11219268 942.79325461 1103.07788086 945.82875061 C1097.34229103 951.56743925 1091.60925347 957.30867055 1085.87714481 963.05083615 C1079.34702794 969.59215934 1072.81404598 976.13061792 1066.28083038 982.66884601 C1052.85071271 996.10939523 1039.42416932 1009.5535098 1026 1023 C1027.57979988 1026.86594333 1030.19736878 1029.47532151 1033.11512721 1032.3635242 C1033.64475372 1032.89570688 1034.17438023 1033.42788956 1034.72005602 1033.97619899 C1036.50853959 1035.77084217 1038.30410569 1037.55822881 1040.09967995 1039.3457756 C1041.39685733 1040.64443149 1042.6935956 1041.94352611 1043.98993242 1043.24302107 C1047.5765877 1046.8358393 1051.16949418 1050.42235007 1054.7633906 1054.00792299 C1058.6633548 1057.90104031 1062.55753462 1061.79993608 1066.45243299 1065.69812036 C1073.28711761 1072.5369605 1080.12552595 1079.37205955 1086.96634865 1086.2047596 C1097.13846664 1096.36483286 1107.30487398 1106.5306076 1117.47009029 1116.69758521 C1134.56770279 1133.79801452 1151.67015486 1150.89359684 1168.77516556 1167.98662567 C1185.71771205 1184.91733242 1202.65819178 1201.85010276 1219.59589767 1218.78565216 C1220.12166928 1219.31135494 1220.64744089 1219.83705773 1221.18914497 1220.3786909 C1225.99116711 1225.18008665 1230.79316375 1229.9815079 1235.59512978 1234.78295976 C1247.53296446 1246.71951555 1259.471119 1258.65575138 1271.40949059 1270.59177017 C1272.22501453 1271.40713416 1272.22501453 1271.40713416 1273.05701371 1272.23897016 C1299.5123405 1298.68905228 1325.9713518 1325.1354478 1352.43066406 1351.58154297 C1361.61410803 1360.76040367 1370.79753572 1369.93928066 1379.980896 1379.1182251 C1380.55043898 1379.68749418 1381.11998196 1380.25676327 1381.70678383 1380.84328293 C1408.17704227 1407.30085622 1434.64468492 1433.76104566 1461.11165196 1460.22191147 C1462.82963701 1461.93950039 1464.54762319 1463.65708818 1466.26560959 1465.37467575 C1477.65067104 1476.75709766 1489.03568737 1488.13956469 1500.4206735 1499.52206194 C1523.07450504 1522.1709403 1545.72860164 1544.81955353 1568.38288031 1567.46798465 C1569.46176735 1568.54659321 1570.5406542 1569.62520195 1571.61954087 1570.70381088 C1629.04505159 1628.11453495 1686.47502441 1685.52079478 1787 1786 C1783.55495297 1790.0893358 1780.06389713 1794.06101137 1776.27928352 1797.84376431 C1775.37907136 1798.74596752 1774.4788592 1799.64817073 1773.55136788 1800.57771343 C1772.56685252 1801.55937668 1771.5822905 1802.54099313 1770.59768677 1803.52256775 C1769.54047105 1804.58022006 1768.48347532 1805.63809232 1767.42667949 1806.69616419 C1764.53507428 1809.58999703 1761.64037448 1812.48071664 1758.74514389 1815.37092173 C1755.61866078 1818.4930756 1752.49507926 1821.61813004 1749.37113953 1824.74282837 C1743.96261301 1830.15187855 1738.55226248 1835.55909869 1733.14065933 1840.96507072 C1725.31644709 1848.78114669 1717.49500638 1856.59999127 1709.67423354 1864.41950852 C1696.98464817 1877.10690672 1684.29283249 1889.79207138 1671.59960938 1902.47583008 C1659.2712876 1914.79496908 1646.94401935 1927.11516073 1634.61816406 1939.43676758 C1633.85805653 1940.19661239 1633.097949 1940.95645719 1632.31480791 1941.7393276 C1628.50147633 1945.55135411 1624.68816543 1949.36340131 1620.87486482 1953.17545879 C1589.25311493 1984.78684648 1557.62774329 2016.3946089 1526 2048 C1522.13405667 2046.42020012 1519.52467849 2043.80263122 1516.6364758 2040.88487279 C1516.10429312 2040.35524628 1515.57211044 2039.82561977 1515.02380101 2039.27994398 C1513.22915783 2037.49146041 1511.44177119 2035.69589431 1509.6542244 2033.90032005 C1508.35556851 2032.60314267 1507.05647389 2031.3064044 1505.75697893 2030.01006758 C1502.1641607 2026.4234123 1498.57764993 2022.83050582 1494.99207701 2019.2366094 C1491.09895969 2015.3366452 1487.20006392 2011.44246538 1483.30187964 2007.54756701 C1476.4630395 2000.71288239 1469.62794045 1993.87447405 1462.7952404 1987.03365135 C1452.63516714 1976.86153336 1442.4693924 1966.69512602 1432.30241479 1956.52990971 C1415.20198548 1939.43229721 1398.10640316 1922.32984514 1381.01337433 1905.22483444 C1364.08266758 1888.28228795 1347.14989724 1871.34180822 1330.21434784 1854.40410233 C1329.68864506 1853.87833072 1329.16294227 1853.35255911 1328.6213091 1852.81085503 C1323.81991335 1848.00883289 1319.0184921 1843.20683625 1314.21704024 1838.40487022 C1302.28048445 1826.46703554 1290.34424862 1814.528881 1278.40822983 1802.59050941 C1277.86465383 1802.04682678 1277.32107784 1801.50314416 1276.76102984 1800.94298629 C1250.31094772 1774.4876595 1223.8645522 1748.0286482 1197.41845703 1721.56933594 C1188.23959633 1712.38589197 1179.06071934 1703.20246428 1169.8817749 1694.019104 C1169.02787127 1693.16478953 1169.02787127 1693.16478953 1168.15671707 1692.29321617 C1141.69914378 1665.82295773 1115.23895434 1639.35531508 1088.77808853 1612.88834804 C1087.06049961 1611.17036299 1085.34291182 1609.45237681 1083.62532425 1607.73439041 C1072.24290234 1596.34932896 1060.86043531 1584.96431263 1049.47793806 1573.5793265 C1026.8290597 1550.92549496 1004.18044647 1528.27139836 981.53201535 1505.61711969 C980.45340679 1504.53823265 979.37479805 1503.4593458 978.29618912 1502.38045913 C920.88546505 1444.95494841 863.47920522 1387.52497559 763 1287 C759.17838127 1288.77995185 756.53388285 1291.18986986 753.59506607 1294.16163158 C753.05932138 1294.69536818 752.52357669 1295.22910478 751.97159731 1295.77901521 C750.16835453 1297.57794923 748.37236967 1299.38396015 746.57623291 1301.18998718 C745.27547393 1302.49059017 743.974274 1303.79075227 742.67267013 1305.09050971 C739.08974905 1308.67089268 735.51310834 1312.25749329 731.93742514 1315.84510267 C728.08271651 1319.71048213 724.22223729 1323.57009044 720.36242676 1327.43037415 C713.67164161 1334.12352424 706.98447932 1340.82027644 700.29969025 1347.5194149 C690.62634215 1357.21342853 680.94701261 1366.90145181 671.26610801 1376.5879185 C655.54967256 1392.31361631 639.83733166 1408.04339943 624.12792969 1423.77612305 C623.17775424 1424.72770606 622.22757871 1425.67928898 621.27740309 1426.63087181 C620.80662523 1427.10234727 620.33584738 1427.57382272 619.85080353 1428.05958531 C617.46922312 1430.44469433 615.08764053 1432.82980118 612.70605469 1435.21490479 C612.23383739 1435.68782054 611.7616201 1436.1607363 611.27509318 1436.64798283 C600.31558145 1447.62366229 589.35479755 1458.5980709 578.39355469 1469.57202148 C577.92422363 1470.04189866 577.45489257 1470.51177583 576.97133936 1470.9958917 C560.85081643 1487.13513889 544.72820764 1503.27230136 528.60444045 1519.40830737 C518.94992866 1529.07040962 509.29750021 1538.73458479 499.64775845 1548.40145103 C493.03351634 1555.0272659 486.41757689 1561.65138258 479.8003042 1568.27417078 C475.98237653 1572.0954284 472.16530196 1575.91752861 468.35044098 1579.74184799 C464.85626621 1583.24467038 461.35977925 1586.74516753 457.86146685 1590.24385748 C456.59811719 1591.50817077 455.33561951 1592.7733361 454.07407501 1594.03945061 C443.46401964 1604.68645561 443.46401964 1604.68645561 439.06238174 1608.43803883 C432.72130435 1613.85637614 426.95543358 1619.91445975 421.07019043 1625.81628418 C419.65439632 1627.23235855 418.2383802 1628.64821098 416.82216215 1630.06386137 C412.94269653 1633.94303218 409.06634778 1637.82530448 405.19050193 1641.7080915 C401.0055051 1645.89947343 396.81759487 1650.08794257 392.63002014 1654.27674866 C385.37727003 1661.53238321 378.12629808 1668.78979082 370.8764801 1676.0483551 C360.38632753 1686.55113087 349.89287768 1697.05060763 339.39855355 1707.54921502 C334.50531454 1712.44446 329.61223634 1717.33986572 324.71920013 1722.23531342 C323.98453779 1722.97033728 323.98453779 1722.97033728 323.23503378 1723.72021011 C311.58572679 1735.37532438 299.93799517 1747.03201265 288.29052734 1758.68896484 C287.78110546 1759.19880037 287.27168358 1759.7086359 286.74682467 1760.23392098 C278.99782211 1767.9892197 271.24890175 1775.74460056 263.5 1783.5 C255.23653752 1791.77039165 246.9730448 1800.04075308 238.70947266 1808.31103516 C237.94575596 1809.07537373 237.94575596 1809.07537373 237.16661065 1809.85515349 C225.53877917 1821.49243628 213.91049619 1833.12926741 202.28079987 1844.76468658 C201.7918108 1845.25391665 201.30282173 1845.74314671 200.79901481 1846.24720192 C195.9168021 1851.13180019 191.03451057 1856.01631966 186.15210141 1860.90072157 C175.20161794 1871.85571089 164.25289945 1882.81245792 153.30676758 1893.77179539 C146.13804245 1900.94894546 138.96755135 1908.12432793 131.79566705 1915.29832113 C127.65773673 1919.43759651 123.52064289 1923.57769923 119.38574409 1927.72000313 C115.59936069 1931.51314185 111.81067044 1935.30396053 108.02014834 1939.09296328 C106.65059866 1940.46278405 105.28189726 1941.83345358 103.91414016 1943.20506424 C91.76772527 1955.38410558 91.76772527 1955.38410558 85.55203962 1960.67463744 C83.54808085 1962.38591587 81.67255577 1964.2044196 79.81103516 1966.06871033 C79.08483475 1966.79353607 78.35863434 1967.51836182 77.61042786 1968.26515198 C76.84437729 1969.03479782 76.07832672 1969.80444366 75.2890625 1970.59741211 C74.45884079 1971.42748779 73.62861908 1972.25756348 72.77323914 1973.11279297 C70.05477973 1975.83194392 67.33987044 1978.55460989 64.625 1981.27734375 C62.73093141 1983.17327921 60.83666628 1985.06901623 58.94213867 1986.9644928 C54.4815207 1991.42820499 50.02345551 1995.89445755 45.5663271 2000.36165386 C40.48721787 2005.45198388 35.40523082 2010.5394367 30.32301331 2015.62666309 C19.87882895 2026.08126853 9.43829019 2036.53950953 -1 2047 C-6.38750224 2042.50264334 -11.39600144 2037.74573237 -16.3494873 2032.77749634 C-17.16315624 2031.9653874 -17.97682517 2031.15327845 -18.81515074 2030.31656015 C-21.52953611 2027.60614997 -24.2403491 2024.89219562 -26.95117188 2022.17822266 C-28.90093109 2020.22926913 -30.85143422 2018.2810607 -32.80189514 2016.33280945 C-37.54256787 2011.59657433 -42.28054407 2006.85765062 -47.01754677 2002.11774518 C-50.86940992 1998.26361984 -54.72225263 1994.4104763 -58.57579041 1990.55802536 C-59.3997815 1989.73426411 -59.3997815 1989.73426411 -60.24041888 1988.89386123 C-61.3565288 1987.77807105 -62.47264095 1986.66228311 -63.58875531 1985.54649739 C-74.04536195 1975.09273973 -84.49890593 1964.6359238 -94.95139903 1954.1780533 C-103.91003841 1945.21494766 -112.8712946 1936.25446529 -121.83447266 1927.29589844 C-132.25443505 1916.88129423 -142.67276466 1906.46506107 -153.0885148 1896.04624403 C-154.20041098 1894.93402932 -155.31230923 1893.82181669 -156.42420959 1892.70960617 C-156.97121764 1892.16244385 -157.51822568 1891.61528153 -158.08180973 1891.05153853 C-161.92690429 1887.20558246 -165.77315407 1883.36078406 -169.61985779 1879.51643753 C-174.31181663 1874.82729075 -179.00197431 1870.13635117 -183.68987119 1865.44314338 C-186.07935492 1863.05104141 -188.46987883 1860.660005 -190.86206245 1858.27060127 C-193.46053657 1855.67486808 -196.05589751 1853.07606061 -198.6505127 1850.47647095 C-199.77421367 1849.35611606 -199.77421367 1849.35611606 -200.92061567 1848.21312773 C-204.94559584 1844.17321318 -208.79981465 1840.04156259 -212.51324803 1835.71278131 C-214.55383466 1833.36196644 -216.72175159 1831.15848 -218.92553711 1828.9609375 C-219.82594223 1828.06060791 -220.72634735 1827.16027832 -221.65403748 1826.23266602 C-222.61175145 1825.2800556 -223.56952147 1824.32750152 -224.52734375 1823.375 C-225.52647028 1822.37774323 -226.5253728 1821.38026198 -227.52406311 1820.38256836 C-230.1274695 1817.78294321 -232.7338667 1815.18633769 -235.34094238 1812.59039307 C-238.01104274 1809.93060237 -240.67824277 1807.2679066 -243.34570312 1804.60546875 C-248.56100038 1799.40083112 -253.77946716 1794.1993866 -259 1789 C-257.50046762 1785.50043176 -255.49210284 1783.24245311 -252.80943871 1780.56054974 C-251.48369223 1779.22790507 -251.48369223 1779.22790507 -250.131163 1777.86833829 C-249.14436585 1776.8865563 -248.15747538 1775.90486809 -247.17050171 1774.92326355 C-246.126352 1773.87752591 -245.0826403 1772.83135078 -244.03933012 1771.78477556 C-241.16778728 1768.90680929 -238.29002491 1766.03513279 -235.41122174 1763.16443145 C-232.30863391 1760.06841362 -229.21180508 1756.96664472 -226.11425781 1753.86558533 C-220.04265535 1747.78893629 -213.96571687 1741.71765045 -207.88697068 1735.6481485 C-200.80735814 1728.57891551 -193.73297114 1721.50446286 -186.65879007 1714.4297953 C-174.03266047 1701.80316479 -161.40170266 1689.18137515 -148.76806641 1676.56225586 C-136.51314387 1664.32140782 -124.26171572 1652.07707653 -112.01416016 1639.82885742 C-110.88368785 1638.69832518 -110.88368785 1638.69832518 -109.73037772 1637.54495391 C-108.97802685 1636.79256268 -108.22567598 1636.04017145 -107.4505266 1635.26498049 C-93.50740161 1621.32116496 -79.56098541 1607.38064538 -65.61304235 1593.44164946 C-60.68276849 1588.51438859 -55.75346847 1583.58615476 -50.82447433 1578.65761375 C-44.81231398 1572.64613681 -38.79825825 1566.63656321 -32.78185765 1560.62932988 C-29.71336241 1557.56544048 -26.64564408 1554.50078431 -23.58008194 1551.43395996 C-20.7704878 1548.62326516 -17.95857542 1545.81491101 -15.14483781 1543.00836436 C-14.13044084 1541.99577011 -13.1168684 1540.982349 -12.10423343 1539.96799269 C-3.60257012 1531.45348578 -3.60257012 1531.45348578 0.79134941 1527.7099123 C7.16990143 1522.22662436 12.99433641 1516.13591177 18.92980957 1510.18371582 C20.34560368 1508.76764145 21.7616198 1507.35178902 23.17783785 1505.93613863 C27.05730347 1502.05696782 30.93365222 1498.17469552 34.80949807 1494.2919085 C38.9944949 1490.10052657 43.18240513 1485.91205743 47.36997986 1481.72325134 C54.62272997 1474.46761679 61.87370192 1467.21020918 69.1235199 1459.9516449 C79.61367247 1449.44886913 90.10712232 1438.94939237 100.60144645 1428.45078498 C105.49468546 1423.55554 110.38776366 1418.66013428 115.28079987 1413.76468658 C115.77057476 1413.27467068 116.26034966 1412.78465477 116.76496622 1412.27978989 C128.41427321 1400.62467562 140.06200483 1388.96798735 151.70947266 1377.31103516 C152.21889454 1376.80119963 152.72831642 1376.2913641 153.25317533 1375.76607902 C161.00217789 1368.0107803 168.75109825 1360.25539944 176.5 1352.5 C184.76346248 1344.22960835 193.0269552 1335.95924692 201.29052734 1327.68896484 C202.05424404 1326.92462627 202.05424404 1326.92462627 202.83338935 1326.14484651 C214.46122083 1314.50756372 226.08950381 1302.87073259 237.71920013 1291.23531342 C238.2081892 1290.74608335 238.69717827 1290.25685329 239.20098519 1289.75279808 C244.0831979 1284.86819981 248.96548943 1279.98368034 253.84789859 1275.09927843 C264.79838206 1264.14428911 275.74710055 1253.18754208 286.69323242 1242.22820461 C293.86195755 1235.05105454 301.03244865 1227.87567207 308.20433295 1220.70167887 C312.34226327 1216.56240349 316.47935711 1212.42230077 320.61425591 1208.27999687 C324.40063931 1204.48685815 328.18932956 1200.69603947 331.97985166 1196.90703672 C333.34940134 1195.53721595 334.71810274 1194.16654642 336.08585984 1192.79493576 C348.08127006 1180.76730471 348.08127006 1180.76730471 354.30700445 1175.46631849 C357.17278102 1172.98424394 359.83231064 1170.3022331 362.50476074 1167.61549377 C363.10779479 1167.01331416 363.71082883 1166.41113454 364.33213663 1165.79070705 C366.32731642 1163.79715819 368.31893017 1161.80008651 370.31054688 1159.80297852 C371.74991728 1158.3633257 373.1895086 1156.92389372 374.62930298 1155.48466492 C378.51937676 1151.59487699 382.4063686 1147.70202266 386.292799 1143.80859494 C390.36157429 1139.73355084 394.43319853 1135.66135529 398.5045166 1131.58885193 C406.20568996 1123.88457564 413.90431154 1116.17775469 421.6020112 1108.47000784 C430.36909338 1099.69173226 439.13902927 1090.91631006 447.90920162 1082.14112198 C465.94263655 1064.09724618 483.9724991 1046.04980432 502 1028 C500.41896791 1024.12834261 497.79363814 1021.51572517 494.87204874 1018.62365174 C494.34103337 1018.09008021 493.81001801 1017.55650867 493.26291127 1017.0067683 C491.46969383 1015.20739113 489.66939347 1013.41527043 487.86908531 1011.62298965 C486.56849707 1010.32092291 485.26834794 1009.01841744 483.96860027 1007.71551162 C480.37247468 1004.11322302 476.77009772 1000.51724189 473.16673098 996.9221986 C469.25650078 993.01881521 465.35205487 989.10965342 461.44689047 985.20120311 C454.59418111 978.3443382 447.73774797 971.4912144 440.87890053 964.64048958 C430.67998005 954.45361379 420.48677017 944.26103655 410.29475136 934.06725643 C393.15206104 916.9217493 376.00453112 899.78108915 358.8544426 882.64298248 C341.86723872 865.66761834 324.88210159 848.69019062 307.89973831 831.70998383 C307.37258109 831.18289543 306.84542387 830.65580703 306.30229219 830.11274626 C301.48761506 825.29869552 296.67296344 820.48461928 291.85834242 815.67051244 C279.88904537 803.70249428 267.91942846 791.73479607 255.9495945 779.76731491 C255.40447896 779.22230601 254.85936342 778.6772971 254.29772923 778.11577278 C227.77265739 751.59594561 201.24390105 725.07980505 174.71484375 698.56396484 C165.50718917 689.36089353 156.29955087 680.15780593 147.09197998 670.95465088 C146.5209355 670.3838803 145.94989102 669.81310972 145.36154217 669.22504306 C118.82151552 642.69770156 92.28410465 616.16774392 65.74736941 589.6371099 C64.02485634 587.91499295 62.30234214 586.19287714 60.57982771 584.47076156 C49.16475946 573.05833284 37.74973633 561.64585901 26.3347434 550.23335497 C3.62120305 527.52476778 -19.09260237 504.81644574 -41.80658986 482.1083058 C-42.88832055 481.02685359 -43.97005105 479.94540119 -45.05178137 478.86394861 C-101.79121745 422.13908412 -158.53499153 365.41855968 -261 263 C-259.34604524 259.49715964 -257.4628996 257.21414317 -254.70900536 254.4629097 C-253.34973303 253.09766423 -253.34973303 253.09766423 -251.96300066 251.70483804 C-250.95103921 250.69858264 -249.93898545 249.69242007 -248.92684937 248.68634033 C-247.85637261 247.61499164 -246.78633538 246.54320365 -245.71670115 245.47101378 C-242.7726979 242.52253068 -239.82248155 239.58033315 -236.87123442 236.63910317 C-233.69107687 233.4675686 -230.51668682 230.29027074 -227.34159851 227.11366272 C-221.83859676 221.60961139 -216.33193993 216.10923881 -210.82279587 210.61133575 C-202.85746785 202.66224985 -194.89765684 194.70765841 -186.93918903 186.7517049 C-174.02749502 173.84439001 -161.11133938 160.94154938 -148.19238281 148.04150391 C-135.64153988 135.50901415 -123.09279562 122.97442915 -110.546875 110.43701172 C-109.38721539 109.27814028 -109.38721539 109.27814028 -108.20412831 108.09585729 C-104.32576075 104.22009977 -100.44743448 100.34430093 -96.56912875 96.46848154 C-64.38581969 64.30591176 -32.19527143 32.15059495 0 0 Z " fill="#FF0000" transform="translate(261,0)"/>
</svg>
